<svg width="190" height="102" viewBox="0 0 190 102" fill="none" xmlns="http://www.w3.org/2000/svg">
<path d="M148.07 83.7732C171.227 83.7732 190 65.0199 190 41.8866C190 18.7533 171.227 0 148.07 0H57.0175C56.0647 0 55.1192 0.0317522 54.1822 0.0942553C53.147 0.0317205 52.1035 0 51.0526 0C22.857 0 0 22.8335 0 51C0 79.1665 22.857 102 51.0526 102C52.9642 102 54.8512 101.895 56.7083 101.691C57.3643 91.6855 65.6958 83.7732 75.8772 83.7732C75.9064 83.7732 75.9357 83.7733 75.9649 83.7734V83.7732H148.07Z" fill="#00DCEA"/>
<path d="M65.196 15.1763C63.7398 15.1763 62.4688 15.6255 61.4652 16.5724C60.4381 17.5414 59.9619 18.835 59.9619 20.3385V28.1893C59.9619 29.6604 60.4448 30.9366 61.4453 31.9361C62.4458 32.9356 63.7234 33.418 65.196 33.418H76.0391L76.0926 33.4121C77.0502 33.3058 77.9039 32.9785 78.6053 32.3946L78.623 32.38L78.6399 32.3645C79.3959 31.6721 79.7542 30.758 79.7542 29.7195C79.7542 28.6651 79.4126 27.7262 78.6232 27.0594C77.8946 26.3999 76.9921 26.0876 75.9853 26.0876H68.7924C68.2481 26.0876 68.0061 25.9374 67.8777 25.7897C67.7266 25.6159 67.5663 25.2541 67.5663 24.53V23.7316C67.5663 23.3223 67.6748 23.0159 67.8674 22.7652C68.0302 22.5961 68.3266 22.4403 68.9256 22.4403H75.7189C76.7088 22.4403 77.6054 22.1606 78.3389 21.55L78.3566 21.5353L78.3735 21.5198C79.1295 20.8275 79.4878 19.9133 79.4878 18.8748C79.4878 17.8098 79.1411 16.8662 78.3735 16.1633C77.642 15.4935 76.7333 15.1763 75.7189 15.1763H65.196Z" fill="white"/>
<path d="M94.8543 27.9442L94.8692 27.9293L94.8835 27.9137C95.544 27.1939 95.8715 26.3135 95.8715 25.3284C95.8715 24.4531 95.6035 23.6499 95.0777 22.9496C94.4132 22.0645 93.3287 21.763 92.1692 21.763H90.4376C90.0523 21.763 89.9365 21.6626 89.9018 21.6251C89.854 21.5735 89.7442 21.4042 89.7442 20.9373V17.6107C89.7442 17.2329 89.6389 16.8073 89.499 16.3855C89.3116 15.7719 88.9547 15.2272 88.4792 14.7474C87.8557 14.0647 86.9278 13.8457 85.9753 13.8457C84.9319 13.8457 83.9957 14.1536 83.2541 14.8327C82.4759 15.5453 82.1398 16.5185 82.1398 17.6107V35.2416C82.1398 36.3082 82.4861 37.2537 83.2236 37.9905C83.9612 38.7273 84.9077 39.0732 85.9753 39.0732C86.9809 39.0732 87.8671 38.7099 88.5801 38.0041C89.3629 37.2752 89.7442 36.3263 89.7442 35.2416V29.4534C89.7442 29.1573 89.8209 29.0926 89.8301 29.0848L89.8307 29.0843C89.8603 29.0583 90.004 28.9604 90.4376 28.9604H92.1692C93.2098 28.9604 94.1448 28.653 94.8543 27.9442Z" fill="white"/>
<path d="M79.9618 46.3683L79.9646 46.3717L79.9674 46.3751C80.2363 46.6974 80.4082 47.1495 80.4082 47.8162V52.806C80.4082 53.8181 80.726 54.7231 81.4254 55.4218C82.1524 56.148 83.071 56.5045 84.1105 56.5045C85.143 56.5045 86.0562 56.1528 86.7808 55.4366C87.5261 54.746 87.8794 53.8373 87.8794 52.806V43.8908C87.8794 42.3329 87.4216 40.9996 86.3431 40.0947C85.3534 39.2208 84.1451 38.7951 82.7785 38.7951H72.1224C71.0799 38.7951 70.1443 39.1026 69.403 39.7805C68.6708 40.4461 68.3535 41.3517 68.3535 42.3605C68.3535 43.395 68.6597 44.3311 69.4026 45.0067C70.1439 45.6849 71.0796 45.9925 72.1224 45.9925H78.8491C79.506 45.9925 79.8042 46.1759 79.9618 46.3683Z" fill="white"/>
<path d="M132.653 15.1763C131.196 15.1763 129.925 15.6255 128.922 16.5724C127.895 17.5414 127.419 18.835 127.419 20.3385V28.1893C127.419 29.6604 127.901 30.9366 128.902 31.9361C129.902 32.9356 131.18 33.418 132.653 33.418H143.496L143.549 33.4121C144.507 33.3058 145.361 32.9785 146.062 32.3946L146.08 32.38L146.097 32.3645C146.853 31.6721 147.211 30.758 147.211 29.7195C147.211 28.6651 146.869 27.7262 146.08 27.0594C145.351 26.3999 144.449 26.0876 143.442 26.0876H136.249C135.705 26.0876 135.463 25.9374 135.334 25.7897C135.183 25.6159 135.023 25.2541 135.023 24.53V23.7316C135.023 23.3223 135.131 23.0159 135.324 22.7652C135.487 22.5961 135.783 22.4403 136.382 22.4403H143.176C144.165 22.4403 145.062 22.1606 145.796 21.55L145.813 21.5353L145.83 21.5198C146.586 20.8275 146.944 19.9133 146.944 18.8748C146.944 17.8098 146.598 16.8662 145.83 16.1633C145.099 15.4935 144.19 15.1763 143.176 15.1763H132.653Z" fill="white"/>
<path d="M162.311 27.9442L162.326 27.9293L162.34 27.9137C163.001 27.1939 163.328 26.3135 163.328 25.3284C163.328 24.4531 163.06 23.6499 162.534 22.9496C161.87 22.0645 160.785 21.763 159.626 21.763H157.894C157.509 21.763 157.393 21.6626 157.358 21.6251C157.311 21.5735 157.201 21.4042 157.201 20.9373V17.6107C157.201 17.2329 157.096 16.8073 156.956 16.3855C156.768 15.7719 156.411 15.2272 155.936 14.7474C155.312 14.0647 154.384 13.8457 153.432 13.8457C152.389 13.8457 151.452 14.1536 150.711 14.8327C149.933 15.5453 149.596 16.5185 149.596 17.6107V35.2416C149.596 36.3082 149.943 37.2537 150.68 37.9905C151.418 38.7273 152.364 39.0732 153.432 39.0732C154.438 39.0732 155.324 38.7099 156.037 38.0041C156.82 37.2752 157.201 36.3263 157.201 35.2416V29.4534C157.201 29.1573 157.278 29.0926 157.287 29.0848L157.287 29.0843C157.317 29.0583 157.461 28.9604 157.894 28.9604H159.626C160.666 28.9604 161.601 28.653 162.311 27.9442Z" fill="white"/>
<path d="M147.418 46.3683L147.421 46.3717L147.424 46.3751C147.693 46.6974 147.865 47.1495 147.865 47.8162V52.806C147.865 53.8181 148.183 54.7231 148.882 55.4218C149.609 56.148 150.528 56.5045 151.567 56.5045C152.6 56.5045 153.513 56.1528 154.237 55.4366C154.983 54.746 155.336 53.8373 155.336 52.806V43.8908C155.336 42.3329 154.878 40.9996 153.8 40.0947C152.81 39.2208 151.602 38.7951 150.235 38.7951H139.579C138.536 38.7951 137.601 39.1026 136.86 39.7805C136.127 40.4461 135.81 41.3517 135.81 42.3605C135.81 43.395 136.116 44.3311 136.859 45.0067C137.601 45.6849 138.536 45.9925 139.579 45.9925H146.306C146.963 45.9925 147.261 46.1759 147.418 46.3683Z" fill="white"/>
<path fill-rule="evenodd" clip-rule="evenodd" d="M119.084 46.4918L119.082 46.4906L119.081 46.4895C118.104 45.6279 116.831 45.2487 115.375 45.2487H115.263C115.32 44.9619 115.347 44.6636 115.347 44.3565V43.0258C115.347 42.5077 115.466 42.3005 115.532 42.2267C115.58 42.1732 115.709 42.0671 116.107 42.0671H120.836C121.943 42.0671 122.945 41.7476 123.632 40.9377C124.247 40.261 124.605 39.4639 124.605 38.5682C124.605 37.5627 124.239 36.6828 123.506 36.0039C122.798 35.3058 121.869 35.0028 120.836 35.0028H102.388C101.373 35.0028 100.464 35.3199 99.7329 35.9898L99.7174 36.004L99.7024 36.0189C99.014 36.7067 98.6852 37.583 98.6852 38.5682C98.6852 39.4428 99.0049 40.2343 99.5765 40.9194C100.263 41.7428 101.272 42.0671 102.388 42.0671H107.05C107.458 42.0671 107.591 42.1735 107.636 42.2226C107.695 42.2853 107.81 42.4708 107.81 42.9593V44.3565C107.81 44.6636 107.837 44.9619 107.894 45.2487H106.25C105.26 45.2487 104.364 45.5283 103.63 46.139L103.613 46.1536L103.596 46.1691C102.84 46.8615 102.481 47.7756 102.481 48.8141C102.481 49.8685 102.823 50.8074 103.612 51.4742C104.341 52.1337 105.244 52.4461 106.25 52.4461H111.911C112.346 52.4461 112.624 52.492 112.786 52.5459C112.837 52.5627 112.867 52.5771 112.884 52.5862L112.901 52.6126C113.083 52.885 113.138 53.1 113.138 53.2717V53.804C113.138 53.8922 113.112 54.0073 112.972 54.1702L112.951 54.1942L112.934 54.2171C112.926 54.2248 112.891 54.2509 112.803 54.2803C112.668 54.3253 112.447 54.3635 112.111 54.3635H107.782C106.31 54.3635 105.01 54.8445 103.935 55.8103C102.825 56.8082 102.282 58.1214 102.282 59.6588V65.7797C102.282 67.2674 102.799 68.5493 103.85 69.5448C104.873 70.5128 106.111 71.0084 107.516 71.0084H117.373C118.405 71.0084 119.315 70.6555 120.006 69.9109C120.712 69.1988 121.075 68.3139 121.075 67.3099C121.075 66.2449 120.728 65.3013 119.961 64.5984L119.959 64.5971L119.958 64.5957C119.254 63.957 118.36 63.678 117.373 63.678H111.046C110.611 63.678 110.333 63.632 110.171 63.5781C110.134 63.5659 110.108 63.555 110.09 63.5464C109.999 63.3061 109.953 63.0546 109.953 62.7858V62.2535C109.953 62.0447 109.991 61.8506 110.067 61.6644C110.081 61.6586 110.098 61.6517 110.121 61.6442C110.252 61.6006 110.481 61.5609 110.846 61.5609H115.375C116.758 61.5609 117.985 61.1025 119.009 60.1921C120.093 59.274 120.609 58.014 120.609 56.5318V50.3443C120.609 48.777 120.146 47.4354 119.084 46.4918ZM110.032 61.6828C110.032 61.6828 110.033 61.6822 110.035 61.6812C110.033 61.6823 110.032 61.6828 110.032 61.6828ZM110.057 63.5272C110.057 63.5272 110.058 63.5279 110.06 63.5295C110.058 63.528 110.057 63.5272 110.057 63.5272ZM112.9 52.5967L112.9 52.5969C112.9 52.5969 112.9 52.5965 112.899 52.5958L112.897 52.5945L112.898 52.5956L112.899 52.596L112.9 52.5967ZM112.936 54.2148C112.936 54.2148 112.936 54.2156 112.934 54.2168C112.936 54.2154 112.936 54.2148 112.936 54.2148Z" fill="white"/>
<path d="M114.566 30.3465C114.1 29.796 113.59 29.2432 113.035 28.6882C112.433 28.1301 112.038 27.9762 111.831 27.959C111.727 27.9504 111.373 28.0114 110.712 28.6306C109.968 29.3299 109.224 30.0513 108.48 30.7947C107.769 31.5488 107.144 32.1958 106.604 32.7345L106.582 32.7573L106.557 32.7786C105.655 33.5675 104.593 33.9163 103.442 33.661C102.517 33.4556 101.708 33.0817 101.068 32.5002L101.023 32.4596L100.984 32.4137C100.302 31.6192 99.9585 30.6894 100.019 29.6625L100.021 29.6342L100.024 29.6061C100.141 28.6115 100.595 27.7756 101.38 27.1659C101.652 26.9401 101.927 26.7331 102.205 26.5458C102.474 26.3236 102.761 26.1033 103.066 25.8848C103.933 25.1913 104.779 24.4764 105.602 23.7401C106.35 23.0715 106.939 22.2879 107.372 21.3834L107.379 21.3682L107.387 21.3532C107.814 20.5348 108.024 19.4649 107.946 18.0897C107.833 17.0045 108.184 16.0417 108.988 15.3007C109.737 14.6103 110.635 14.2449 111.645 14.2449C112.684 14.2449 113.609 14.5997 114.369 15.3007C115.172 16.0416 115.524 17.004 115.411 18.089C115.331 19.5383 115.505 20.6221 115.86 21.4005C116.246 22.2495 116.783 22.979 117.476 23.5965C118.28 24.2724 119.148 24.9501 120.08 25.6296C120.377 25.7834 120.654 25.9624 120.91 26.1672C121.108 26.325 121.329 26.486 121.575 26.6497L121.602 26.668L121.628 26.688C122.491 27.3511 122.868 28.3242 122.873 29.429C122.923 30.5197 122.616 31.5008 121.87 32.2548C121.153 33.0233 120.225 33.4269 119.155 33.4832L119.13 33.4845H119.104C118.052 33.4845 117.141 33.0951 116.459 32.3088C115.753 31.6027 115.131 30.9589 114.594 30.3779L114.58 30.3625L114.566 30.3465Z" fill="white"/>
<path fill-rule="evenodd" clip-rule="evenodd" d="M51.6271 46.4918L51.6258 46.4906L51.6244 46.4895C50.647 45.6279 49.3743 45.2487 47.9179 45.2487H47.8066C47.8634 44.9619 47.8906 44.6636 47.8906 44.3565V43.0258C47.8906 42.5077 48.0091 42.3005 48.0753 42.2267C48.1234 42.1732 48.2522 42.0671 48.6505 42.0671H53.3791C54.4863 42.0671 55.4884 41.7476 56.1749 40.9377C56.79 40.261 57.1481 39.4639 57.1481 38.5682C57.1481 37.5627 56.7823 36.6828 56.0491 36.0039C55.3415 35.3058 54.4124 35.0028 53.3791 35.0028H34.9308C33.9163 35.0028 33.0077 35.3199 32.2762 35.9898L32.2607 36.004L32.2457 36.0189C31.5573 36.7067 31.2285 37.583 31.2285 38.5682C31.2285 39.4428 31.5482 40.2343 32.1197 40.9194C32.8066 41.7428 33.8154 42.0671 34.9308 42.0671H39.5929C40.001 42.0671 40.1339 42.1735 40.1795 42.2226C40.2378 42.2853 40.3528 42.4708 40.3528 42.9593V44.3565C40.3528 44.6636 40.38 44.9619 40.4368 45.2487H38.7937C37.8037 45.2487 36.9072 45.5283 36.1736 46.139L36.156 46.1536L36.139 46.1691C35.383 46.8615 35.0247 47.7756 35.0247 48.8141C35.0247 49.8685 35.3663 50.8074 36.1557 51.4742C36.8843 52.1337 37.7868 52.4461 38.7937 52.4461H44.4547C44.8892 52.4461 45.1676 52.492 45.3296 52.5459C45.3798 52.5627 45.4102 52.5771 45.4268 52.5862L45.4444 52.6126C45.6262 52.885 45.6808 53.1 45.6808 53.2717V53.804C45.6808 53.8922 45.655 54.0073 45.5151 54.1702L45.4945 54.1942L45.4774 54.2171C45.4688 54.2248 45.4345 54.2509 45.3462 54.2803C45.2111 54.3253 44.9901 54.3635 44.6545 54.3635H40.3255C38.8529 54.3635 37.5528 54.8445 36.4786 55.8103C35.3686 56.8082 34.8249 58.1214 34.8249 59.6588V65.7797C34.8249 67.2674 35.3419 68.5493 36.3938 69.5448C37.4165 70.5128 38.6542 71.0084 40.0591 71.0084H49.9159C50.9482 71.0084 51.8579 70.6555 52.5492 69.9109C53.2549 69.1988 53.6182 68.3139 53.6182 67.3099C53.6182 66.2449 53.2715 65.3013 52.5039 64.5984L52.5024 64.5971L52.501 64.5957C51.7976 63.957 50.9032 63.678 49.9159 63.678H43.5889C43.1544 63.678 42.876 63.632 42.714 63.5781C42.6774 63.5659 42.6514 63.555 42.6335 63.5464C42.542 63.3061 42.496 63.0546 42.496 62.7858V62.2535C42.496 62.0447 42.5339 61.8506 42.6106 61.6644C42.6239 61.6586 42.6414 61.6517 42.664 61.6442C42.7949 61.6006 43.0247 61.5609 43.3891 61.5609H47.9179C49.3013 61.5609 50.5286 61.1025 51.5521 60.1921C52.6367 59.274 53.152 58.014 53.152 56.5318V50.3443C53.152 48.777 52.6897 47.4354 51.6271 46.4918ZM42.5779 61.6812C42.5763 61.6822 42.5756 61.6828 42.5756 61.6828C42.5756 61.6828 42.576 61.6826 42.5766 61.6821C42.577 61.6819 42.5774 61.6816 42.5779 61.6812ZM42.6001 63.5272C42.6001 63.5272 42.6013 63.5279 42.6032 63.5295C42.601 63.528 42.6001 63.5272 42.6001 63.5272ZM45.4404 52.5945C45.4423 52.5962 45.4435 52.5969 45.4435 52.5969C45.4435 52.5969 45.4433 52.5966 45.4427 52.5962C45.4422 52.5958 45.4415 52.5952 45.4404 52.5945ZM45.4794 54.2152L45.4796 54.2148C45.4796 54.2148 45.4789 54.2154 45.4777 54.2168C45.4785 54.216 45.4791 54.2155 45.4794 54.2152Z" fill="white"/>
<path d="M47.1095 30.3465C46.6432 29.796 46.1329 29.2432 45.578 28.6882C44.9764 28.1301 44.5809 27.9762 44.374 27.959C44.2701 27.9504 43.9165 28.0114 43.2552 28.6306C42.5114 29.3299 41.7673 30.0513 41.0229 30.7947C40.3123 31.5488 39.6869 32.1958 39.1477 32.7345L39.1249 32.7573L39.1005 32.7786C38.198 33.5675 37.1358 33.9163 35.9854 33.661C35.0604 33.4556 34.2514 33.0817 33.6112 32.5002L33.5664 32.4596L33.5271 32.4137C32.8454 31.6192 32.5017 30.6894 32.5622 29.6625L32.5639 29.6342L32.5672 29.6061C32.6843 28.6115 33.1379 27.7756 33.923 27.1659C34.1951 26.9401 34.47 26.7331 34.7479 26.5458C35.0169 26.3236 35.3043 26.1033 35.6095 25.8848C36.4765 25.1913 37.3219 24.4764 38.1457 23.7401C38.8937 23.0715 39.482 22.2879 39.9151 21.3834L39.9224 21.3682L39.9302 21.3532C40.3576 20.5348 40.567 19.4649 40.489 18.0897C40.3758 17.0045 40.7275 16.0417 41.5312 15.3007C42.2798 14.6103 43.1785 14.2449 44.1883 14.2449C45.227 14.2449 46.1518 14.5997 46.912 15.3007C47.7155 16.0416 48.0672 17.004 47.9543 18.089C47.8739 19.5383 48.0487 20.6221 48.4029 21.4005C48.7892 22.2495 49.3264 22.979 50.0192 23.5965C50.8232 24.2724 51.6912 24.9501 52.6238 25.6296C52.92 25.7834 53.1971 25.9624 53.4534 26.1672C53.6509 26.325 53.8721 26.486 54.1179 26.6497L54.1453 26.668L54.1714 26.688C55.0343 27.3511 55.4109 28.3242 55.4164 29.429C55.4658 30.5197 55.1596 31.5008 54.4131 32.2548C53.6964 33.0233 52.7678 33.4269 51.6986 33.4832L51.6731 33.4845H51.6475C50.5957 33.4845 49.6843 33.0951 49.0025 32.3088C48.2963 31.6027 47.6742 30.9589 47.1373 30.3779L47.1231 30.3625L47.1095 30.3465Z" fill="white"/>
</svg>
