<svg width="12" height="12" viewBox="0 0 12 12" fill="none" xmlns="http://www.w3.org/2000/svg">
<g clip-path="url(#clip0_732_8320)">
<path d="M6.58503 5.99931L9.87996 2.70495C10.04 2.54492 10.04 2.28005 9.87996 2.12002C9.7199 1.95999 9.45498 1.95999 9.29493 2.12002L6 5.41438L2.70507 2.12002C2.54502 1.95999 2.2801 1.95999 2.12004 2.12002C1.95999 2.28005 1.95999 2.54492 2.12004 2.70495L5.41497 5.99931L2.12004 9.29367C1.95999 9.4537 1.95999 9.71857 2.12004 9.8786C2.20283 9.96137 2.30769 10 2.41256 10C2.51742 10 2.62228 9.96137 2.70507 9.8786L6 6.58424L9.29493 9.8786C9.37772 9.96137 9.48258 10 9.58744 10C9.69231 10 9.79717 9.96137 9.87996 9.8786C10.04 9.71857 10.04 9.4537 9.87996 9.29367L6.58503 5.99931Z" fill="#8E8E8E"/>
</g>
<defs>
<clipPath id="clip0_732_8320">
<rect width="12" height="12" fill="white"/>
</clipPath>
</defs>
</svg>
