<svg width="107" height="94" viewBox="0 0 107 94" fill="none" xmlns="http://www.w3.org/2000/svg">
<g id="Group 216">
<g id="&#236;&#149;&#132;&#235;&#166;&#172;" filter="url(#filter0_d_1550_11596)">
<g id="Group 191">
<g id="Group 117">
<g id="Group 190">
<g id="Ellipse 13">
<ellipse cx="14.4539" cy="11.5832" rx="14.4539" ry="11.5832" transform="matrix(0.916963 -0.398973 -0.398973 -0.916963 73.4926 60.0826)" fill="#FFE070"/>
<ellipse cx="14.4539" cy="11.5832" rx="14.4539" ry="11.5832" transform="matrix(0.916963 -0.398973 -0.398973 -0.916963 73.4926 60.0826)" fill="#FFC800"/>
</g>
</g>
</g>
<g id="Group 132">
<g id="Group 130">
<g id="Group 129">
<g id="Group 127">
<path id="Union" d="M66.8332 74.2812C66.1763 73.9552 65.8632 73.1924 66.1016 72.4988L67.622 68.075C67.7605 67.672 67.992 67.3073 68.2977 67.0104L68.7552 66.5661C69.3063 66.0309 70.1351 65.9014 70.8232 66.243C71.5114 66.5845 71.9093 67.3229 71.8162 68.0855L71.739 68.7186C71.6873 69.1416 71.5368 69.5465 71.2996 69.9005L68.6953 73.7863C68.287 74.3955 67.4901 74.6073 66.8332 74.2812Z" fill="#E28200"/>
<g id="Group 126">
<path id="Union_2" d="M71.0679 74.2366C70.336 74.2826 69.6834 73.7786 69.5431 73.0588L68.6479 68.4674C68.5664 68.0492 68.5845 67.6176 68.7008 67.2076L68.8749 66.5941C69.0845 65.855 69.7375 65.3285 70.5042 65.2802C71.271 65.2319 71.9848 65.6725 72.2855 66.3794L72.5351 66.9663C72.7019 67.3584 72.774 67.7844 72.7455 68.2096L72.433 72.8769C72.384 73.6087 71.7998 74.1905 71.0679 74.2366Z" fill="#E28200"/>
<path id="Union_3" d="M64.2417 70.8482C64.6476 71.459 65.4436 71.674 66.1018 71.3506L70.3001 69.2875C70.6826 69.0996 71.0154 68.8242 71.2716 68.4837L71.655 67.9741C72.1169 67.3602 72.1415 66.5218 71.7164 65.8819C71.2912 65.242 70.5087 64.9397 69.7638 65.1277L69.1454 65.2837C68.7323 65.388 68.3494 65.5881 68.028 65.8679L64.4993 68.9388C63.9461 69.4202 63.8359 70.2374 64.2417 70.8482Z" fill="#E28200"/>
</g>
</g>
</g>
</g>
</g>
<circle id="Ellipse 11" cx="33.9962" cy="33.9962" r="33.9962" transform="matrix(-1 0 0 1 87.2437 6)" fill="#FFE070"/>
<g id="Group 193">
<g id="Group 188">
<g id="Group 135">
<g id="Group 132_2">
<g id="Group 130_2">
<g id="Group 129_2">
<g id="Group 127_2">
<path id="Union_4" d="M44.2292 79.2838C43.5723 78.9577 43.2592 78.195 43.4976 77.5014L45.018 73.0776C45.1565 72.6746 45.388 72.3099 45.6937 72.013L46.1512 71.5687C46.7023 71.0334 47.5311 70.9039 48.2192 71.2455C48.9074 71.5871 49.3053 72.3255 49.2122 73.0881L49.135 73.7212C49.0833 74.1442 48.9328 74.5491 48.6955 74.9031L46.0913 78.7889C45.683 79.3981 44.8861 79.6099 44.2292 79.2838Z" fill="#E28200"/>
<g id="Group 126_2">
<path id="Union_5" d="M48.4643 79.2391C47.7323 79.2852 47.0798 78.7812 46.9394 78.0613L46.0443 73.47C45.9627 73.0517 45.9808 72.6201 46.0971 72.2102L46.2712 71.5966C46.4809 70.8575 47.1339 70.331 47.9006 70.2828C48.6673 70.2345 49.3812 70.675 49.6819 71.382L49.9315 71.9689C50.0983 72.361 50.1703 72.7869 50.1419 73.2121L49.8294 77.8795C49.7804 78.6112 49.1962 79.1931 48.4643 79.2391Z" fill="#E28200"/>
<path id="Union_6" d="M41.638 75.8508C42.0438 76.4616 42.8398 76.6766 43.498 76.3532L47.6963 74.2901C48.0788 74.1022 48.4116 73.8268 48.6678 73.4863L49.0513 72.9766C49.5132 72.3628 49.5378 71.5243 49.1126 70.8844C48.6874 70.2445 47.905 69.9423 47.1601 70.1303L46.5417 70.2863C46.1285 70.3905 45.7457 70.5907 45.4242 70.8704L41.8956 73.9413C41.3424 74.4228 41.2321 75.2399 41.638 75.8508Z" fill="#E28200"/>
</g>
</g>
</g>
</g>
</g>
</g>
</g>
</g>
<g id="Group 192">
<g id="Group 189">
<circle id="Ellipse 20" cx="3.00581" cy="3.00581" r="3.00581" transform="matrix(-0.925162 0.379573 0.379573 0.925162 73.8364 19.2006)" fill="#2C2726"/>
<circle id="Ellipse 21" cx="3.00581" cy="3.00581" r="3.00581" transform="matrix(-0.925162 0.379573 0.379573 0.925162 59.6465 25.5079)" fill="#2C2726"/>
</g>
</g>
<g id="Group 125">
<g id="Ellipse 12">
<ellipse cx="14.4539" cy="11.5832" rx="14.4539" ry="11.5832" transform="matrix(0.916963 -0.398973 -0.398973 -0.916963 16.2426 60.9166)" fill="#FFE070"/>
<ellipse cx="14.4539" cy="11.5832" rx="14.4539" ry="11.5832" transform="matrix(0.916963 -0.398973 -0.398973 -0.916963 16.2426 60.9166)" fill="#FFE070"/>
</g>
</g>
</g>
</g>
<g id="Ellipse 18">
<path d="M74.4064 37.7556C72.0226 38.9369 69.1959 38.09 68.0929 35.8641C66.9899 33.6381 68.0281 30.876 70.4119 29.6948C70.555 29.6239 70.6969 29.5602 70.8377 29.5033C76.0367 27.4038 79.6363 34.6677 74.8166 37.5328C74.6861 37.6104 74.5494 37.6848 74.4064 37.7556Z" fill="#FF9403"/>
<path d="M70.8377 29.5033C76.0367 27.4038 79.6363 34.6677 74.8166 37.5328C83.8515 32.243 80.5193 25.5185 70.8377 29.5033Z" fill="#FF9403"/>
</g>
</g>
<defs>
<filter id="filter0_d_1550_11596" x="0.834717" y="0" width="105.33" height="93.4362" filterUnits="userSpaceOnUse" color-interpolation-filters="sRGB">
<feFlood flood-opacity="0" result="BackgroundImageFix"/>
<feColorMatrix in="SourceAlpha" type="matrix" values="0 0 0 0 0 0 0 0 0 0 0 0 0 0 0 0 0 0 127 0" result="hardAlpha"/>
<feOffset dy="4"/>
<feGaussianBlur stdDeviation="5"/>
<feComposite in2="hardAlpha" operator="out"/>
<feColorMatrix type="matrix" values="0 0 0 0 0 0 0 0 0 0 0 0 0 0 0 0 0 0 0.12 0"/>
<feBlend mode="normal" in2="BackgroundImageFix" result="effect1_dropShadow_1550_11596"/>
<feBlend mode="normal" in="SourceGraphic" in2="effect1_dropShadow_1550_11596" result="shape"/>
</filter>
</defs>
</svg>
