<svg width="335" height="120" viewBox="0 0 335 120" fill="none" xmlns="http://www.w3.org/2000/svg">
<rect width="335" height="120" rx="16" fill="#08BECA"/>
<g filter="url(#filter0_d_1554_11590)">
<ellipse cx="14.4539" cy="11.5832" rx="14.4539" ry="11.5832" transform="matrix(0.916963 -0.398973 -0.398973 -0.916963 86.4927 80.0826)" fill="#FFE070"/>
<ellipse cx="14.4539" cy="11.5832" rx="14.4539" ry="11.5832" transform="matrix(0.916963 -0.398973 -0.398973 -0.916963 86.4927 80.0826)" fill="#FFC800"/>
<path d="M79.8323 94.2812C79.1754 93.9552 78.8623 93.1924 79.1007 92.4988L80.6211 88.075C80.7596 87.672 80.9911 87.3073 81.2968 87.0104L81.7544 86.5661C82.3055 86.0309 83.1342 85.9014 83.8224 86.243C84.5105 86.5845 84.9085 87.3229 84.8154 88.0855L84.7381 88.7186C84.6865 89.1416 84.5359 89.5465 84.2987 89.9005L81.6944 93.7863C81.2861 94.3955 80.4892 94.6073 79.8323 94.2812Z" fill="#E28200"/>
<path d="M84.0675 94.2366C83.3356 94.2826 82.6831 93.7786 82.5427 93.0588L81.6475 88.4674C81.566 88.0492 81.5841 87.6176 81.7004 87.2076L81.8745 86.5941C82.0842 85.855 82.7371 85.3285 83.5039 85.2802C84.2706 85.2319 84.9844 85.6725 85.2851 86.3794L85.5347 86.9663C85.7015 87.3584 85.7736 87.7844 85.7451 88.2096L85.4327 92.8769C85.3837 93.6087 84.7995 94.1905 84.0675 94.2366Z" fill="#E28200"/>
<path d="M77.2414 90.8482C77.6472 91.459 78.4432 91.674 79.1014 91.3506L83.2997 89.2875C83.6822 89.0996 84.015 88.8242 84.2712 88.4837L84.6547 87.9741C85.1166 87.3602 85.1412 86.5218 84.716 85.8819C84.2908 85.242 83.5084 84.9397 82.7635 85.1277L82.1451 85.2837C81.7319 85.388 81.3491 85.5881 81.0276 85.8679L77.499 88.9388C76.9457 89.4202 76.8355 90.2374 77.2414 90.8482Z" fill="#E28200"/>
<circle cx="33.9962" cy="33.9962" r="33.9962" transform="matrix(-1 0 0 1 100.244 26)" fill="#FFE070"/>
<path d="M57.2288 99.2838C56.5719 98.9577 56.2588 98.195 56.4972 97.5014L58.0176 93.0776C58.1561 92.6746 58.3876 92.3099 58.6933 92.013L59.1508 91.5687C59.702 91.0334 60.5307 90.9039 61.2189 91.2455C61.907 91.5871 62.3049 92.3255 62.2119 93.0881L62.1346 93.7212C62.083 94.1442 61.9324 94.5491 61.6952 94.9031L59.0909 98.7889C58.6826 99.3981 57.8857 99.6099 57.2288 99.2838Z" fill="#E28200"/>
<path d="M61.4635 99.2391C60.7316 99.2852 60.0791 98.7812 59.9387 98.0613L59.0435 93.47C58.962 93.0517 58.9801 92.6201 59.0964 92.2102L59.2705 91.5966C59.4802 90.8575 60.1331 90.331 60.8999 90.2828C61.6666 90.2345 62.3804 90.675 62.6811 91.382L62.9307 91.9689C63.0975 92.361 63.1696 92.7869 63.1411 93.2121L62.8287 97.8795C62.7797 98.6112 62.1955 99.1931 61.4635 99.2391Z" fill="#E28200"/>
<path d="M54.6374 95.8508C55.0432 96.4616 55.8392 96.6766 56.4974 96.3532L60.6957 94.2901C61.0782 94.1022 61.411 93.8268 61.6672 93.4863L62.0507 92.9766C62.5126 92.3628 62.5371 91.5243 62.112 90.8844C61.6868 90.2445 60.9044 89.9423 60.1595 90.1303L59.5411 90.2863C59.1279 90.3905 58.7451 90.5907 58.4236 90.8704L54.895 93.9413C54.3417 94.4228 54.2315 95.2399 54.6374 95.8508Z" fill="#E28200"/>
<circle cx="3.00581" cy="3.00581" r="3.00581" transform="matrix(-0.925162 0.379573 0.379573 0.925162 86.8364 39.2006)" fill="#2C2726"/>
<circle cx="3.00581" cy="3.00581" r="3.00581" transform="matrix(-0.925162 0.379573 0.379573 0.925162 72.6465 45.5079)" fill="#2C2726"/>
<ellipse cx="14.4539" cy="11.5832" rx="14.4539" ry="11.5832" transform="matrix(0.916963 -0.398973 -0.398973 -0.916963 29.2427 80.9166)" fill="#FFE070"/>
<ellipse cx="14.4539" cy="11.5832" rx="14.4539" ry="11.5832" transform="matrix(0.916963 -0.398973 -0.398973 -0.916963 29.2427 80.9166)" fill="#FFE070"/>
</g>
<path d="M87.4064 57.7556C85.0226 58.9369 82.1959 58.09 81.0929 55.8641C79.9899 53.6381 81.0281 50.876 83.4119 49.6948C83.555 49.6239 83.6969 49.5602 83.8377 49.5033C89.0367 47.4038 92.6363 54.6677 87.8166 57.5328C87.6861 57.6104 87.5494 57.6848 87.4064 57.7556Z" fill="#FF9403"/>
<path d="M83.8377 49.5033C89.0367 47.4038 92.6363 54.6677 87.8166 57.5328C96.8515 52.243 93.5193 45.5185 83.8377 49.5033Z" fill="#FF9403"/>
<defs>
<filter id="filter0_d_1554_11590" x="13.835" y="20" width="105.33" height="93.4362" filterUnits="userSpaceOnUse" color-interpolation-filters="sRGB">
<feFlood flood-opacity="0" result="BackgroundImageFix"/>
<feColorMatrix in="SourceAlpha" type="matrix" values="0 0 0 0 0 0 0 0 0 0 0 0 0 0 0 0 0 0 127 0" result="hardAlpha"/>
<feOffset dy="4"/>
<feGaussianBlur stdDeviation="5"/>
<feComposite in2="hardAlpha" operator="out"/>
<feColorMatrix type="matrix" values="0 0 0 0 0 0 0 0 0 0 0 0 0 0 0 0 0 0 0.12 0"/>
<feBlend mode="normal" in2="BackgroundImageFix" result="effect1_dropShadow_1554_11590"/>
<feBlend mode="normal" in="SourceGraphic" in2="effect1_dropShadow_1554_11590" result="shape"/>
</filter>
</defs>
</svg>
