<svg width="24" height="24" viewBox="0 0 24 24" fill="none" xmlns="http://www.w3.org/2000/svg">
<path d="M11.8626 2.4288C11.8802 2.38887 11.9003 2.37125 11.9168 2.36098C11.9371 2.34844 11.9659 2.33906 12 2.33906C12.0341 2.33906 12.0629 2.34844 12.0832 2.36098C12.0997 2.37125 12.1198 2.38887 12.1374 2.4288L14.2566 7.25969C14.5184 7.85659 15.0751 8.27165 15.7219 8.35228L20.8285 8.98892C20.9534 9.00448 21.0047 9.15759 20.9145 9.24531L17.0727 12.9809C16.6276 13.4137 16.4293 14.0408 16.5446 14.6508L17.554 19.9925C17.5619 20.0343 17.5556 20.0601 17.5477 20.0781C17.5383 20.0999 17.5203 20.1238 17.4929 20.143C17.4655 20.1623 17.437 20.1712 17.4133 20.1727C17.3936 20.1739 17.3672 20.1712 17.3305 20.1496L12.9384 17.5645C12.3592 17.2237 11.6408 17.2237 11.0616 17.5645L6.66948 20.1496C6.6328 20.1712 6.60637 20.1739 6.58674 20.1727C6.56305 20.1712 6.53451 20.1623 6.50712 20.143C6.47974 20.1238 6.46168 20.0999 6.45225 20.0781C6.44444 20.0601 6.4381 20.0343 6.44601 19.9925L7.45544 14.6508C7.57071 14.0408 7.37236 13.4137 6.9273 12.9809L3.08548 9.24531C2.99527 9.15759 3.04664 9.00448 3.17149 8.98892L8.27813 8.35228C8.92493 8.27165 9.48158 7.85659 9.74342 7.25969L11.8626 2.4288Z" stroke="#BEBEBE" stroke-width="1.7"/>
</svg>
