<svg width="20" height="20" viewBox="0 0 20 20" fill="none" xmlns="http://www.w3.org/2000/svg">
<path fill-rule="evenodd" clip-rule="evenodd" d="M15.3 8.5C15.3 12.2555 12.2555 15.3 8.5 15.3C4.74446 15.3 1.7 12.2555 1.7 8.5C1.7 4.74446 4.74446 1.7 8.5 1.7C12.2555 1.7 15.3 4.74446 15.3 8.5ZM13.8794 15.0815C12.4141 16.2806 10.5411 17 8.5 17C3.80558 17 0 13.1944 0 8.5C0 3.80558 3.80558 0 8.5 0C13.1944 0 17 3.80558 17 8.5C17 10.5411 16.2806 12.4142 15.0815 13.8795L19.2579 18.0559C19.5898 18.3878 19.5898 18.926 19.2579 19.258C18.9259 19.5899 18.3878 19.5899 18.0558 19.258L13.8794 15.0815Z" fill="black"/>
</svg>
