<svg width="16" height="16" viewBox="0 0 16 16" fill="none" xmlns="http://www.w3.org/2000/svg">
<path d="M2 3.65527H14" stroke="#8E8E8E" stroke-linecap="round"/>
<path d="M2 7.79297H14" stroke="#8E8E8E" stroke-linecap="round"/>
<path d="M2 11.9312H14" stroke="#8E8E8E" stroke-linecap="round"/>
<path d="M7.92843 3.86207C7.92843 4.59793 7.30552 5.22414 6.49986 5.22414C5.6942 5.22414 5.07129 4.59793 5.07129 3.86207C5.07129 3.12621 5.6942 2.5 6.49986 2.5C7.30552 2.5 7.92843 3.12621 7.92843 3.86207Z" fill="white" stroke="#8E8E8E"/>
<path d="M11.3571 7.99976C11.3571 8.73562 10.7342 9.36183 9.92857 9.36183C9.12291 9.36183 8.5 8.73562 8.5 7.99976C8.5 7.26391 9.12291 6.6377 9.92857 6.6377C10.7342 6.6377 11.3571 7.26391 11.3571 7.99976Z" fill="white" stroke="#8E8E8E"/>
<path d="M7.0715 12.1379C7.0715 12.8738 6.44859 13.5 5.64293 13.5C4.83727 13.5 4.21436 12.8738 4.21436 12.1379C4.21436 11.4021 4.83727 10.7759 5.64293 10.7759C6.44859 10.7759 7.0715 11.4021 7.0715 12.1379Z" fill="white" stroke="#8E8E8E"/>
</svg>
