<svg width="17" height="17" viewBox="0 0 17 17" fill="none" xmlns="http://www.w3.org/2000/svg">
<path fill-rule="evenodd" clip-rule="evenodd" d="M13.4167 7.74996C13.4167 10.8796 10.8797 13.4166 7.75008 13.4166C4.62047 13.4166 2.08341 10.8796 2.08341 7.74996C2.08341 4.62035 4.62047 2.08329 7.75008 2.08329C10.8797 2.08329 13.4167 4.62035 13.4167 7.74996ZM12.2329 13.2346C11.0118 14.2338 9.45097 14.8333 7.75008 14.8333C3.83806 14.8333 0.666748 11.662 0.666748 7.74996C0.666748 3.83794 3.83806 0.666626 7.75008 0.666626C11.6621 0.666626 14.8334 3.83794 14.8334 7.74996C14.8334 9.45087 14.2339 11.0118 13.2346 12.2328L16.715 15.7132C16.9916 15.9898 16.9916 16.4383 16.715 16.7149C16.4384 16.9915 15.9899 16.9915 15.7133 16.7149L12.2329 13.2346Z" fill="#8E8E8E"/>
</svg>
