<svg width="24" height="24" viewBox="0 0 24 24" fill="none" xmlns="http://www.w3.org/2000/svg">
<path d="M11.0842 2.08734C11.4342 1.28964 12.5658 1.28964 12.9158 2.08734L15.035 6.91822C15.1765 7.24087 15.4774 7.46523 15.827 7.50881L20.9337 8.14545C21.766 8.24922 22.1085 9.26995 21.5071 9.85471L17.6653 13.5904C17.4247 13.8243 17.3175 14.1633 17.3798 14.493L18.3892 19.8346C18.5487 20.6788 17.6398 21.3179 16.8994 20.8821L12.5072 18.2971C12.1942 18.1128 11.8058 18.1128 11.4928 18.2971L7.10063 20.8821C6.36023 21.3179 5.45126 20.6788 5.61079 19.8346L6.62022 14.493C6.68253 14.1633 6.57531 13.8243 6.33474 13.5904L2.49292 9.85471C1.89154 9.26995 2.23398 8.24922 3.06634 8.14545L8.17298 7.50881C8.5226 7.46523 8.82349 7.24087 8.96503 6.91822L11.0842 2.08734Z" fill="#FF9300"/>
</svg>
