<svg width="16" height="16" viewBox="0 0 16 16" fill="none" xmlns="http://www.w3.org/2000/svg">
<path d="M9.17006 7.99862L15.7599 1.4099C16.08 1.08984 16.08 0.560097 15.7599 0.240041C15.4398 -0.0800138 14.91 -0.0800138 14.5899 0.240041L8 6.82876L1.41014 0.240041C1.09003 -0.0800138 0.560193 -0.0800138 0.240083 0.240041C-0.0800276 0.560097 -0.0800276 1.08984 0.240083 1.4099L6.82994 7.99862L0.240083 14.5873C-0.0800276 14.9074 -0.0800276 15.4371 0.240083 15.7572C0.405657 15.9227 0.615384 16 0.825112 16C1.03484 16 1.24457 15.9227 1.41014 15.7572L8 9.16848L14.5899 15.7572C14.7554 15.9227 14.9652 16 15.1749 16C15.3846 16 15.5943 15.9227 15.7599 15.7572C16.08 15.4371 16.08 14.9074 15.7599 14.5873L9.17006 7.99862Z" fill="black"/>
</svg>
