<svg width="36" height="36" viewBox="0 0 36 36" fill="none" xmlns="http://www.w3.org/2000/svg">
<path d="M14.1429 19.2859C17.1864 19.2859 19.6531 16.9113 19.6531 13.9823C19.6531 11.0533 17.1864 8.67871 14.1429 8.67871C11.0993 8.67871 8.63265 11.0533 8.63265 13.9823C8.63265 16.9113 11.0993 19.2859 14.1429 19.2859ZM16.3254 21.2747H11.9603C7.84099 21.2747 4.5 24.49 4.5 28.4552C4.5 29.2483 5.16811 29.8918 5.99206 29.8918H22.2945C23.1185 29.893 23.7857 29.2508 23.7857 28.4552C23.7857 24.49 20.4452 21.2747 16.3254 21.2747Z" fill="#BEBEBE"/>
<path d="M23.7881 20.2747C27.1708 20.0803 29.9089 17.3701 29.9089 13.9823C29.9089 10.4654 26.9582 7.67871 23.3987 7.67871C19.8392 7.67871 16.8885 10.4654 16.8885 13.9823C16.8885 17.3701 19.6266 20.0803 23.0093 20.2747H21.2162C16.581 20.2747 12.7559 23.902 12.7559 28.4552C12.7559 29.8359 13.9077 30.8918 15.2479 30.8918L31.5489 30.8918L31.5504 30.8918M23.7881 20.2747L31.5504 30.8918M23.7881 20.2747H25.5813C30.2169 20.2747 34.0416 23.902 34.0416 28.4552C34.0416 29.8369 32.8922 30.893 31.5504 30.8918M23.7881 20.2747L31.5504 30.8918" fill="#BEBEBE" stroke="white" stroke-width="2"/>
</svg>
