<svg width="90" height="48" viewBox="0 0 90 48" fill="none" xmlns="http://www.w3.org/2000/svg">
<path d="M70.1385 39.4227C81.1077 39.4227 90 30.5976 90 19.7113C90 8.82507 81.1077 0 70.1385 0H27.0083C26.557 0 26.1091 0.0149422 25.6653 0.0443554C25.1749 0.0149273 24.6806 0 24.1828 0C10.827 0 0 10.7452 0 24C0 37.2548 10.827 48 24.1828 48C25.0883 48 25.9822 47.9506 26.8618 47.8544C27.1726 43.1461 31.1191 39.4227 35.9418 39.4227C35.9557 39.4227 35.9695 39.4227 35.9834 39.4228V39.4227H70.1385Z" fill="#00DCEA"/>
<path d="M30.8818 7.14181C30.1921 7.14181 29.59 7.35319 29.1146 7.79876C28.6281 8.25476 28.4025 8.86352 28.4025 9.57107V13.2655C28.4025 13.9578 28.6313 14.5584 29.1052 15.0288C29.5791 15.4991 30.1843 15.7261 30.8818 15.7261H36.018L36.0434 15.7233C36.497 15.6733 36.9014 15.5193 37.2336 15.2445L37.242 15.2376L37.25 15.2303C37.6081 14.9045 37.7778 14.4743 37.7778 13.9856C37.7778 13.4894 37.616 13.0476 37.2421 12.7338C36.897 12.4235 36.4695 12.2765 35.9926 12.2765H32.5854C32.3276 12.2765 32.2129 12.2058 32.1521 12.1363C32.0806 12.0545 32.0046 11.8843 32.0046 11.5435V11.1678C32.0046 10.9752 32.056 10.831 32.1473 10.713C32.2244 10.6335 32.3648 10.5601 32.6485 10.5601H35.8664C36.3353 10.5601 36.76 10.4285 37.1075 10.1412L37.1158 10.1343L37.1238 10.127C37.4819 9.80116 37.6516 9.37096 37.6516 8.88227C37.6516 8.38108 37.4874 7.93705 37.1238 7.60627C36.7773 7.29104 36.3469 7.14181 35.8664 7.14181H30.8818Z" fill="white"/>
<path d="M44.9305 13.1502L44.9376 13.1432L44.9443 13.1359C45.2572 12.7971 45.4123 12.3828 45.4123 11.9193C45.4123 11.5073 45.2854 11.1294 45.0364 10.7998C44.7216 10.3833 44.2079 10.2414 43.6586 10.2414H42.8384C42.6559 10.2414 42.6011 10.1942 42.5846 10.1765C42.5619 10.1522 42.51 10.0726 42.51 9.85285V8.2874C42.51 8.10961 42.4601 7.9093 42.3938 7.71083C42.305 7.42207 42.136 7.16574 41.9107 6.93996C41.6154 6.61866 41.1759 6.51562 40.7247 6.51562C40.2304 6.51562 39.787 6.66053 39.4357 6.98009C39.0671 7.31544 38.9079 7.77343 38.9079 8.2874V16.5843C38.9079 17.0862 39.0719 17.5312 39.4213 17.8779C39.7706 18.2246 40.219 18.3874 40.7247 18.3874C41.201 18.3874 41.6208 18.2164 41.9585 17.8843C42.3293 17.5413 42.51 17.0947 42.51 16.5843V13.8604C42.51 13.7211 42.5463 13.6907 42.5507 13.687L42.5509 13.6867C42.5649 13.6745 42.633 13.6284 42.8384 13.6284H43.6586C44.1515 13.6284 44.5944 13.4837 44.9305 13.1502Z" fill="white"/>
<path d="M37.8762 21.8204L37.8775 21.822L37.8788 21.8236C38.0062 21.9752 38.0876 22.188 38.0876 22.5017V24.8499C38.0876 25.3262 38.2382 25.7521 38.5695 26.0809C38.9138 26.4226 39.3489 26.5904 39.8414 26.5904C40.3304 26.5904 40.763 26.4249 41.1062 26.0878C41.4593 25.7628 41.6266 25.3352 41.6266 24.8499V20.6545C41.6266 19.9213 41.4098 19.294 40.8989 18.8681C40.4301 18.4568 39.8577 18.2565 39.2104 18.2565H34.1628C33.6689 18.2565 33.2258 18.4012 32.8746 18.7202C32.5278 19.0335 32.3775 19.4596 32.3775 19.9344C32.3775 20.4212 32.5225 20.8617 32.8744 21.1796C33.2256 21.4988 33.6688 21.6435 34.1628 21.6435H37.3491C37.6603 21.6435 37.8015 21.7298 37.8762 21.8204Z" fill="white"/>
<path d="M62.835 7.14181C62.1452 7.14181 61.5432 7.35319 61.0678 7.79876C60.5813 8.25476 60.3557 8.86352 60.3557 9.57107V13.2655C60.3557 13.9578 60.5844 14.5584 61.0583 15.0288C61.5323 15.4991 62.1374 15.7261 62.835 15.7261H67.9712L67.9965 15.7233C68.4502 15.6733 68.8546 15.5193 69.1868 15.2445L69.1951 15.2376L69.2032 15.2303C69.5613 14.9045 69.731 14.4743 69.731 13.9856C69.731 13.4894 69.5692 13.0476 69.1953 12.7338C68.8501 12.4235 68.4226 12.2765 67.9457 12.2765H64.5386C64.2807 12.2765 64.1661 12.2058 64.1053 12.1363C64.0337 12.0545 63.9578 11.8843 63.9578 11.5435V11.1678C63.9578 10.9752 64.0092 10.831 64.1004 10.713C64.1775 10.6335 64.3179 10.5601 64.6017 10.5601H67.8195C68.2885 10.5601 68.7131 10.4285 69.0606 10.1412L69.069 10.1343L69.077 10.127C69.4351 9.80116 69.6048 9.37096 69.6048 8.88227C69.6048 8.38108 69.4406 7.93705 69.077 7.60627C68.7304 7.29104 68.3001 7.14181 67.8195 7.14181H62.835Z" fill="white"/>
<path d="M76.8837 13.1502L76.8907 13.1432L76.8975 13.1359C77.2104 12.7971 77.3655 12.3828 77.3655 11.9193C77.3655 11.5073 77.2385 11.1294 76.9895 10.7998C76.6747 10.3833 76.161 10.2414 75.6118 10.2414H74.7915C74.6091 10.2414 74.5542 10.1942 74.5377 10.1765C74.5151 10.1522 74.4631 10.0726 74.4631 9.85285V8.2874C74.4631 8.10961 74.4132 7.9093 74.3469 7.71083C74.2582 7.42207 74.0891 7.16574 73.8639 6.93996C73.5685 6.61866 73.129 6.51562 72.6778 6.51562C72.1836 6.51562 71.7401 6.66053 71.3888 6.98009C71.0202 7.31544 70.861 7.77343 70.861 8.2874V16.5843C70.861 17.0862 71.025 17.5312 71.3744 17.8779C71.7238 18.2246 72.1721 18.3874 72.6778 18.3874C73.1542 18.3874 73.5739 18.2164 73.9117 17.8843C74.2825 17.5413 74.4631 17.0947 74.4631 16.5843V13.8604C74.4631 13.7211 74.4994 13.6907 74.5038 13.687L74.5041 13.6867C74.5181 13.6745 74.5861 13.6284 74.7915 13.6284H75.6118C76.1047 13.6284 76.5476 13.4837 76.8837 13.1502Z" fill="white"/>
<path d="M69.8294 21.8204L69.8307 21.822L69.832 21.8236C69.9593 21.9752 70.0408 22.188 70.0408 22.5017V24.8499C70.0408 25.3262 70.1913 25.7521 70.5226 26.0809C70.867 26.4226 71.3021 26.5904 71.7945 26.5904C72.2836 26.5904 72.7162 26.4249 73.0594 26.0878C73.4124 25.7628 73.5798 25.3352 73.5798 24.8499V20.6545C73.5798 19.9213 73.3629 19.294 72.8521 18.8681C72.3832 18.4568 71.8109 18.2565 71.1636 18.2565H66.1159C65.6221 18.2565 65.1789 18.4012 64.8278 18.7202C64.481 19.0335 64.3307 19.4596 64.3307 19.9344C64.3307 20.4212 64.4757 20.8617 64.8276 21.1796C65.1787 21.4988 65.622 21.6435 66.1159 21.6435H69.3023C69.6134 21.6435 69.7547 21.7298 69.8294 21.8204Z" fill="white"/>
<path fill-rule="evenodd" clip-rule="evenodd" d="M56.4077 21.8785L56.407 21.878L56.4064 21.8774C55.9434 21.472 55.3405 21.2935 54.6507 21.2935H54.5979C54.6248 21.1585 54.6377 21.0181 54.6377 20.8736V20.2474C54.6377 20.0036 54.6939 19.9061 54.7252 19.8714C54.748 19.8462 54.809 19.7963 54.9977 19.7963H57.2376C57.762 19.7963 58.2367 19.6459 58.5619 19.2648C58.8532 18.9463 59.0229 18.5713 59.0229 18.1497C59.0229 17.6766 58.8496 17.2625 58.5023 16.943C58.1671 16.6145 57.727 16.4719 57.2376 16.4719H48.4989C48.0184 16.4719 47.588 16.6211 47.2415 16.9364L47.2341 16.9431L47.227 16.9501C46.9009 17.2737 46.7452 17.6861 46.7452 18.1497C46.7452 18.5613 46.8966 18.9338 47.1673 19.2562C47.4927 19.6437 47.9706 19.7963 48.4989 19.7963H50.7072C50.9006 19.7963 50.9635 19.8464 50.9851 19.8695C51.0127 19.899 51.0672 19.9863 51.0672 20.2161V20.8736C51.0672 21.0181 51.0801 21.1585 51.107 21.2935H50.3287C49.8597 21.2935 49.4351 21.4251 49.0876 21.7125L49.0792 21.7194L49.0712 21.7266C48.7131 22.0524 48.5434 22.4826 48.5434 22.9713C48.5434 23.4675 48.7052 23.9094 49.0791 24.2232C49.4242 24.5335 49.8518 24.6805 50.3287 24.6805H53.0102C53.216 24.6805 53.3479 24.7021 53.4246 24.7275C53.4484 24.7354 53.4628 24.7421 53.4707 24.7465L53.479 24.7589C53.5651 24.887 53.591 24.9882 53.591 25.069V25.3195C53.591 25.361 53.5788 25.4152 53.5125 25.4919L53.5028 25.5032L53.4946 25.5139C53.4906 25.5176 53.4743 25.5298 53.4325 25.5437C53.3685 25.5648 53.2638 25.5828 53.1049 25.5828H51.0543C50.3567 25.5828 49.7409 25.8092 49.2321 26.2637C48.7063 26.7333 48.4487 27.3512 48.4487 28.0747V30.9551C48.4487 31.6552 48.6936 32.2585 49.1919 32.727C49.6763 33.1825 50.2626 33.4157 50.9281 33.4157H55.5971C56.0861 33.4157 56.517 33.2496 56.8444 32.8993C57.1787 32.5641 57.3508 32.1477 57.3508 31.6753C57.3508 31.1741 57.1866 30.73 56.823 30.3993L56.8223 30.3986L56.8216 30.398C56.4884 30.0974 56.0648 29.9661 55.5971 29.9661H52.6001C52.3943 29.9661 52.2624 29.9445 52.1857 29.9191C52.1684 29.9134 52.156 29.9082 52.1475 29.9042C52.1042 29.7911 52.0824 29.6728 52.0824 29.5462V29.2958C52.0824 29.1975 52.1004 29.1062 52.1367 29.0185C52.143 29.0158 52.1513 29.0126 52.162 29.009C52.224 28.9885 52.3328 28.9698 52.5054 28.9698H54.6507C55.306 28.9698 55.8873 28.7541 56.3721 28.3257C56.8859 27.8937 57.13 27.3007 57.13 26.6032V23.6914C57.13 22.9539 56.911 22.3226 56.4077 21.8785ZM52.1201 29.0272C52.1201 29.0272 52.1205 29.0269 52.1212 29.0264C52.1205 29.027 52.1201 29.0272 52.1201 29.0272ZM52.1317 29.8951C52.1317 29.8951 52.1323 29.8955 52.1332 29.8962C52.1321 29.8955 52.1317 29.8951 52.1317 29.8951ZM53.4784 24.7514L53.4786 24.7515C53.4786 24.7515 53.4784 24.7513 53.478 24.7509L53.4771 24.7503L53.4777 24.7508L53.478 24.7511L53.4784 24.7514ZM53.4957 25.5129C53.4957 25.5129 53.4954 25.5132 53.4948 25.5138C53.4954 25.5131 53.4957 25.5129 53.4957 25.5129Z" fill="white"/>
<path d="M54.2678 14.2807C54.0469 14.0216 53.8052 13.7615 53.5423 13.5003C53.2573 13.2377 53.07 13.1653 52.972 13.1572C52.9228 13.1531 52.7553 13.1819 52.442 13.4732C52.0897 13.8023 51.7372 14.1418 51.3846 14.4916C51.048 14.8465 50.7518 15.151 50.4964 15.4045L50.4855 15.4152L50.474 15.4252C50.0465 15.7965 49.5434 15.9606 48.9985 15.8405C48.5603 15.7438 48.1771 15.5678 47.8738 15.2942L47.8526 15.2751L47.834 15.2535C47.5111 14.8796 47.3483 14.4421 47.3769 13.9588L47.3777 13.9455L47.3793 13.9323C47.4348 13.4642 47.6496 13.0709 48.0215 12.784C48.1504 12.6777 48.2806 12.5803 48.4123 12.4921C48.5397 12.3876 48.6758 12.2839 48.8204 12.1811C49.2311 11.8547 49.6315 11.5183 50.0218 11.1718C50.3761 10.8572 50.6547 10.4884 50.8599 10.0628L50.8633 10.0556L50.867 10.0486C51.0695 9.66344 51.1687 9.15996 51.1317 8.51282C51.0781 8.0021 51.2447 7.54906 51.6254 7.20031C51.98 6.87544 52.4057 6.70346 52.884 6.70346C53.3761 6.70346 53.8141 6.87046 54.1742 7.20031C54.5548 7.54898 54.7214 8.00189 54.6679 8.51246C54.6298 9.1945 54.7126 9.70451 54.8804 10.0708C55.0634 10.4703 55.3179 10.8137 55.646 11.1042C56.0269 11.4223 56.438 11.7412 56.8798 12.061C57.0201 12.1334 57.1513 12.2176 57.2727 12.314C57.3663 12.3882 57.4711 12.464 57.5875 12.541L57.6005 12.5496L57.6129 12.5591C58.0216 12.8711 58.2 13.329 58.2026 13.849C58.226 14.3622 58.081 14.8239 57.7274 15.1787C57.3878 15.5404 56.948 15.7303 56.4415 15.7568L56.4294 15.7574H56.4173C55.9191 15.7574 55.4874 15.5742 55.1644 15.2041C54.8299 14.8719 54.5352 14.5689 54.2809 14.2955L54.2742 14.2882L54.2678 14.2807Z" fill="white"/>
<path fill-rule="evenodd" clip-rule="evenodd" d="M24.4545 21.8785L24.4538 21.878L24.4532 21.8774C23.9902 21.472 23.3874 21.2935 22.6975 21.2935H22.6448C22.6717 21.1585 22.6846 21.0181 22.6846 20.8736V20.2474C22.6846 20.0036 22.7407 19.9061 22.772 19.8714C22.7948 19.8462 22.8558 19.7963 23.0445 19.7963H25.2844C25.8088 19.7963 26.2835 19.6459 26.6087 19.2648C26.9001 18.9463 27.0697 18.5713 27.0697 18.1497C27.0697 17.6766 26.8964 17.2625 26.5491 16.943C26.2139 16.6145 25.7738 16.4719 25.2844 16.4719H16.5457C16.0652 16.4719 15.6348 16.6211 15.2883 16.9364L15.2809 16.9431L15.2738 16.9501C14.9477 17.2737 14.792 17.6861 14.792 18.1497C14.792 18.5613 14.9434 18.9338 15.2141 19.2562C15.5395 19.6437 16.0174 19.7963 16.5457 19.7963H18.754C18.9474 19.7963 19.0103 19.8464 19.0319 19.8695C19.0595 19.899 19.114 19.9863 19.114 20.2161V20.8736C19.114 21.0181 19.1269 21.1585 19.1538 21.2935H18.3755C17.9065 21.2935 17.4819 21.4251 17.1344 21.7125L17.126 21.7194L17.118 21.7266C16.7599 22.0524 16.5902 22.4826 16.5902 22.9713C16.5902 23.4675 16.752 23.9094 17.1259 24.2232C17.4711 24.5335 17.8986 24.6805 18.3755 24.6805H21.057C21.2628 24.6805 21.3947 24.7021 21.4714 24.7275C21.4952 24.7354 21.5096 24.7421 21.5175 24.7465L21.5258 24.7589C21.6119 24.887 21.6378 24.9882 21.6378 25.069V25.3195C21.6378 25.361 21.6256 25.4152 21.5593 25.4919L21.5496 25.5032L21.5414 25.5139C21.5374 25.5176 21.5212 25.5298 21.4793 25.5437C21.4153 25.5648 21.3106 25.5828 21.1517 25.5828H19.1011C18.4035 25.5828 17.7877 25.8092 17.2789 26.2637C16.7531 26.7333 16.4956 27.3512 16.4956 28.0747V30.9551C16.4956 31.6552 16.7404 32.2585 17.2387 32.727C17.7232 33.1825 18.3094 33.4157 18.9749 33.4157H23.6439C24.1329 33.4157 24.5638 33.2496 24.8912 32.8993C25.2255 32.5641 25.3976 32.1477 25.3976 31.6753C25.3976 31.1741 25.2334 30.73 24.8698 30.3993L24.8691 30.3986L24.8684 30.398C24.5353 30.0974 24.1116 29.9661 23.6439 29.9661H20.6469C20.4411 29.9661 20.3092 29.9445 20.2325 29.9191C20.2152 29.9134 20.2028 29.9082 20.1944 29.9042C20.151 29.7911 20.1292 29.6728 20.1292 29.5462V29.2958C20.1292 29.1975 20.1472 29.1062 20.1835 29.0185C20.1898 29.0158 20.1981 29.0126 20.2088 29.009C20.2708 28.9885 20.3797 28.9698 20.5523 28.9698H22.6975C23.3528 28.9698 23.9342 28.7541 24.419 28.3257C24.9327 27.8937 25.1768 27.3007 25.1768 26.6032V23.6914C25.1768 22.9539 24.9578 22.3226 24.4545 21.8785ZM20.168 29.0264C20.1673 29.0269 20.1669 29.0272 20.1669 29.0272C20.1669 29.0272 20.1671 29.0271 20.1674 29.0269C20.1676 29.0268 20.1678 29.0266 20.168 29.0264ZM20.1785 29.8951C20.1785 29.8951 20.1791 29.8955 20.18 29.8962C20.1789 29.8955 20.1785 29.8951 20.1785 29.8951ZM21.5239 24.7503C21.5248 24.7511 21.5254 24.7515 21.5254 24.7515C21.5254 24.7515 21.5253 24.7513 21.525 24.7511C21.5248 24.751 21.5244 24.7507 21.5239 24.7503ZM21.5424 25.513L21.5425 25.5129C21.5425 25.5129 21.5422 25.5131 21.5416 25.5138C21.542 25.5134 21.5423 25.5132 21.5424 25.513Z" fill="white"/>
<path d="M22.3146 14.2807C22.0937 14.0216 21.852 13.7615 21.5891 13.5003C21.3041 13.2377 21.1168 13.1653 21.0188 13.1572C20.9696 13.1531 20.8021 13.1819 20.4888 13.4732C20.1365 13.8023 19.784 14.1418 19.4314 14.4916C19.0948 14.8465 18.7986 15.151 18.5432 15.4045L18.5324 15.4152L18.5208 15.4252C18.0933 15.7965 17.5902 15.9606 17.0453 15.8405C16.6071 15.7438 16.2239 15.5678 15.9206 15.2942L15.8994 15.2751L15.8808 15.2535C15.5579 14.8796 15.3951 14.4421 15.4237 13.9588L15.4245 13.9455L15.4261 13.9323C15.4816 13.4642 15.6965 13.0709 16.0683 12.784C16.1972 12.6777 16.3275 12.5803 16.4591 12.4921C16.5865 12.3876 16.7226 12.2839 16.8672 12.1811C17.2779 11.8547 17.6783 11.5183 18.0686 11.1718C18.4229 10.8572 18.7015 10.4884 18.9067 10.0628L18.9101 10.0556L18.9138 10.0486C19.1163 9.66344 19.2155 9.15996 19.1785 8.51282C19.1249 8.0021 19.2915 7.54906 19.6722 7.20031C20.0268 6.87544 20.4525 6.70346 20.9308 6.70346C21.4229 6.70346 21.8609 6.87046 22.221 7.20031C22.6016 7.54898 22.7682 8.00189 22.7147 8.51246C22.6767 9.1945 22.7594 9.70451 22.9272 10.0708C23.1102 10.4703 23.3647 10.8137 23.6929 11.1042C24.0737 11.4223 24.4848 11.7412 24.9266 12.061C25.0669 12.1334 25.1982 12.2176 25.3195 12.314C25.4131 12.3882 25.5179 12.464 25.6344 12.541L25.6473 12.5496L25.6597 12.5591C26.0684 12.8711 26.2468 13.329 26.2494 13.849C26.2728 14.3622 26.1278 14.8239 25.7742 15.1787C25.4347 15.5404 24.9948 15.7303 24.4883 15.7568L24.4763 15.7574H24.4642C23.9659 15.7574 23.5342 15.5742 23.2113 15.2041C22.8767 14.8719 22.5821 14.5689 22.3277 14.2955L22.321 14.2882L22.3146 14.2807Z" fill="white"/>
</svg>
